M48
; DRILL file {KiCad 8.0.6} date 2025-02-13T13:22:58+0000
; FORMAT={-:-/ absolute / inch / decimal}
; #@! TF.CreationDate,2025-02-13T13:22:58+00:00
; #@! TF.GenerationSoftware,Kicad,Pcbnew,8.0.6
; #@! TF.FileFunction,Plated,1,2,PTH
FMAT,2
INCH
; #@! TA.AperFunction,Plated,PTH,ComponentDrill
T1C0.0315
; #@! TA.AperFunction,Plated,PTH,ComponentDrill
T2C0.0354
; #@! TA.AperFunction,Plated,PTH,ComponentDrill
T3C0.0394
; #@! TA.AperFunction,Plated,PTH,ComponentDrill
T4C0.0433
; #@! TA.AperFunction,Plated,PTH,ComponentDrill
T5C0.0469
; #@! TA.AperFunction,Plated,PTH,ComponentDrill
T6C0.0709
; #@! TA.AperFunction,Plated,PTH,ComponentDrill
T7C0.0750
; #@! TA.AperFunction,Plated,PTH,ComponentDrill
T8C0.0787
; #@! TA.AperFunction,Plated,PTH,ComponentDrill
T9C0.1260
%
G90
G05
T1
X4.8031Y-3.2283
X4.8031Y-3.6283
X6.1417Y-3.2283
X6.1417Y-3.6283
T2
X4.9787Y-3.2283
X5.0787Y-3.2283
X5.8661Y-3.2283
X5.9661Y-3.2283
T3
X3.4068Y-4.585
X3.4068Y-4.685
X3.5068Y-4.585
X3.5068Y-4.685
X3.6068Y-4.585
X3.6068Y-4.685
X3.7068Y-4.585
X3.7068Y-4.685
X3.8068Y-4.585
X3.8068Y-4.685
X4.5181Y-4.585
X4.5181Y-4.685
X4.6181Y-4.585
X4.6181Y-4.685
X4.7181Y-4.585
X4.7181Y-4.685
X4.8181Y-4.585
X4.8181Y-4.685
X4.9181Y-4.585
X4.9181Y-4.685
X5.0181Y-4.585
X5.0181Y-4.685
X5.0753Y-3.7795
X5.1181Y-4.585
X5.1181Y-4.685
X5.2181Y-4.585
X5.2181Y-4.685
X5.4724Y-3.7795
X5.8661Y-3.7795
T4
X3.2372Y-3.8071
X3.6372Y-3.8071
X3.7915Y-3.8071
X4.1915Y-3.8071
T5
X5.7161Y-4.6843
X5.8161Y-4.6843
X5.9161Y-4.6843
X6.0161Y-4.6843
X6.3386Y-4.6843
X6.4386Y-4.6843
X6.5386Y-4.6843
T6
X6.8913Y-4.6457
X7.0472Y-4.6457
X7.2031Y-4.6457
X7.3591Y-4.6457
T7
X5.3774Y-3.0433
X5.3774Y-3.2283
X5.3774Y-3.4133
X5.5674Y-3.0433
X5.5674Y-3.2283
X5.5674Y-3.4133
T8
X3.311Y-2.9409
X3.311Y-3.5433
X3.7128Y-2.9409
X3.7128Y-3.5433
X4.1142Y-2.9409
X4.1142Y-3.5433
X7.0472Y-3.2717
X7.0472Y-3.6734
X7.0472Y-4.0748
X7.6496Y-3.2717
X7.6496Y-3.6734
X7.6496Y-4.0748
T9
X2.874Y-2.9134
X2.874Y-4.7638
X7.6772Y-2.9134
X7.6772Y-4.7638
M30
